<svg width="104" height="16" viewBox="0 0 104 16" fill="none" xmlns="http://www.w3.org/2000/svg">
<path d="M23.4264 0.999999L18.8864 15H14.6464L11.9664 6.48L9.16641 15H4.92641L0.386406 0.999999H4.46641L7.28641 9.94L10.2464 0.999999H13.8864L16.7064 10.02L19.6464 0.999999H23.4264ZM34.9445 9.6C34.9445 9.62667 34.9245 9.94 34.8845 10.54H27.0045C27.1645 11.1 27.4712 11.5333 27.9245 11.84C28.3912 12.1333 28.9712 12.28 29.6645 12.28C30.1845 12.28 30.6312 12.2067 31.0045 12.06C31.3912 11.9133 31.7779 11.6733 32.1645 11.34L34.1645 13.42C33.1112 14.5933 31.5712 15.18 29.5445 15.18C28.2779 15.18 27.1645 14.94 26.2045 14.46C25.2445 13.98 24.4979 13.3133 23.9645 12.46C23.4445 11.6067 23.1845 10.64 23.1845 9.56C23.1845 8.49333 23.4379 7.54 23.9445 6.7C24.4645 5.84667 25.1779 5.18 26.0845 4.7C26.9912 4.22 28.0112 3.98 29.1445 3.98C30.2245 3.98 31.2045 4.20667 32.0845 4.66C32.9645 5.1 33.6579 5.74667 34.1645 6.6C34.6845 7.44 34.9445 8.44 34.9445 9.6ZM29.1645 6.68C28.5779 6.68 28.0845 6.84667 27.6845 7.18C27.2979 7.51333 27.0512 7.96667 26.9445 8.54H31.3845C31.2779 7.96667 31.0245 7.51333 30.6245 7.18C30.2379 6.84667 29.7512 6.68 29.1645 6.68ZM43.5166 3.98C44.5032 3.98 45.3966 4.20667 46.1966 4.66C47.0099 5.11333 47.6499 5.76667 48.1166 6.62C48.5966 7.46 48.8366 8.44 48.8366 9.56C48.8366 10.68 48.5966 11.6667 48.1166 12.52C47.6499 13.3733 47.0099 14.0333 46.1966 14.5C45.3966 14.9533 44.5032 15.18 43.5166 15.18C42.0899 15.18 41.0232 14.76 40.3166 13.92V15H36.6966V0.159999H40.4966V5.1C41.2299 4.35333 42.2366 3.98 43.5166 3.98ZM42.7166 12.16C43.3832 12.16 43.9299 11.9333 44.3566 11.48C44.7832 11.0133 44.9966 10.3733 44.9966 9.56C44.9966 8.76 44.7832 8.13333 44.3566 7.68C43.9299 7.22667 43.3832 7 42.7166 7C42.0499 7 41.5032 7.22667 41.0766 7.68C40.6499 8.13333 40.4366 8.76 40.4366 9.56C40.4366 10.3733 40.6499 11.0133 41.0766 11.48C41.5032 11.9333 42.0499 12.16 42.7166 12.16ZM57.7628 15.28C56.2961 15.28 54.9761 14.9733 53.8028 14.36C52.6428 13.7333 51.7295 12.8667 51.0628 11.76C50.3961 10.6533 50.0628 9.4 50.0628 8C50.0628 6.6 50.3961 5.34667 51.0628 4.24C51.7295 3.13333 52.6428 2.27333 53.8028 1.66C54.9761 1.03333 56.2961 0.719999 57.7628 0.719999C59.0428 0.719999 60.1961 0.946666 61.2228 1.4C62.2495 1.85333 63.1028 2.50667 63.7828 3.36L61.2628 5.64C60.3561 4.54667 59.2561 4 57.9628 4C57.2028 4 56.5228 4.16667 55.9228 4.5C55.3361 4.83333 54.8761 5.30667 54.5428 5.92C54.2228 6.52 54.0628 7.21333 54.0628 8C54.0628 8.78667 54.2228 9.48667 54.5428 10.1C54.8761 10.7 55.3361 11.1667 55.9228 11.5C56.5228 11.8333 57.2028 12 57.9628 12C59.2561 12 60.3561 11.4533 61.2628 10.36L63.7828 12.64C63.1028 13.4933 62.2495 14.1467 61.2228 14.6C60.1961 15.0533 59.0428 15.28 57.7628 15.28ZM70.4764 15.18C69.3164 15.18 68.2697 14.94 67.3364 14.46C66.4031 13.98 65.6697 13.3133 65.1364 12.46C64.6164 11.6067 64.3564 10.64 64.3564 9.56C64.3564 8.49333 64.6164 7.53333 65.1364 6.68C65.6697 5.82667 66.3964 5.16667 67.3164 4.7C68.2497 4.22 69.3031 3.98 70.4764 3.98C71.6497 3.98 72.7031 4.22 73.6364 4.7C74.5697 5.16667 75.2964 5.82667 75.8164 6.68C76.3364 7.52 76.5964 8.48 76.5964 9.56C76.5964 10.64 76.3364 11.6067 75.8164 12.46C75.2964 13.3133 74.5697 13.98 73.6364 14.46C72.7031 14.94 71.6497 15.18 70.4764 15.18ZM70.4764 12.16C71.1431 12.16 71.6897 11.9333 72.1164 11.48C72.5431 11.0133 72.7564 10.3733 72.7564 9.56C72.7564 8.76 72.5431 8.13333 72.1164 7.68C71.6897 7.22667 71.1431 7 70.4764 7C69.8097 7 69.2631 7.22667 68.8364 7.68C68.4097 8.13333 68.1964 8.76 68.1964 9.56C68.1964 10.3733 68.4097 11.0133 68.8364 11.48C69.2631 11.9333 69.8097 12.16 70.4764 12.16ZM89.8767 0.159999V15H86.2567V13.92C85.5501 14.76 84.4901 15.18 83.0767 15.18C82.0901 15.18 81.1901 14.9533 80.3767 14.5C79.5634 14.0333 78.9167 13.3733 78.4367 12.52C77.9701 11.6667 77.7367 10.68 77.7367 9.56C77.7367 8.44 77.9701 7.46 78.4367 6.62C78.9167 5.76667 79.5634 5.11333 80.3767 4.66C81.1901 4.20667 82.0901 3.98 83.0767 3.98C84.3701 3.98 85.3701 4.35333 86.0767 5.1V0.159999H89.8767ZM83.8767 12.16C84.5301 12.16 85.0701 11.9333 85.4967 11.48C85.9234 11.0133 86.1367 10.3733 86.1367 9.56C86.1367 8.76 85.9234 8.13333 85.4967 7.68C85.0834 7.22667 84.5434 7 83.8767 7C83.2101 7 82.6634 7.22667 82.2367 7.68C81.8101 8.13333 81.5967 8.76 81.5967 9.56C81.5967 10.3733 81.8101 11.0133 82.2367 11.48C82.6634 11.9333 83.2101 12.16 83.8767 12.16ZM103.402 9.6C103.402 9.62667 103.382 9.94 103.342 10.54H95.4616C95.6216 11.1 95.9282 11.5333 96.3816 11.84C96.8482 12.1333 97.4282 12.28 98.1216 12.28C98.6416 12.28 99.0882 12.2067 99.4616 12.06C99.8482 11.9133 100.235 11.6733 100.622 11.34L102.622 13.42C101.568 14.5933 100.028 15.18 98.0016 15.18C96.7349 15.18 95.6216 14.94 94.6616 14.46C93.7016 13.98 92.9549 13.3133 92.4216 12.46C91.9016 11.6067 91.6416 10.64 91.6416 9.56C91.6416 8.49333 91.8949 7.54 92.4016 6.7C92.9216 5.84667 93.6349 5.18 94.5416 4.7C95.4482 4.22 96.4682 3.98 97.6016 3.98C98.6816 3.98 99.6616 4.20667 100.542 4.66C101.422 5.1 102.115 5.74667 102.622 6.6C103.142 7.44 103.402 8.44 103.402 9.6ZM97.6216 6.68C97.0349 6.68 96.5416 6.84667 96.1416 7.18C95.7549 7.51333 95.5082 7.96667 95.4016 8.54H99.8416C99.7349 7.96667 99.4816 7.51333 99.0816 7.18C98.6949 6.84667 98.2082 6.68 97.6216 6.68Z" fill="white"/>
</svg>
